<?xml version="1.0" encoding="UTF-8" standalone="no"?>
<!-- Created with Inkscape (http://www.inkscape.org/) -->

<svg
   xmlns:dc="http://purl.org/dc/elements/1.1/"
   xmlns:cc="http://creativecommons.org/ns#"
   xmlns:rdf="http://www.w3.org/1999/02/22-rdf-syntax-ns#"
   xmlns:svg="http://www.w3.org/2000/svg"
   xmlns="http://www.w3.org/2000/svg"
   xmlns:sodipodi="http://sodipodi.sourceforge.net/DTD/sodipodi-0.dtd"
   xmlns:inkscape="http://www.inkscape.org/namespaces/inkscape"
   width="64px"
   height="64px"
   id="svg3857"
   version="1.1"
   inkscape:version="0.48.2 r9819"
   sodipodi:docname="Documento nuevo 7">
  <defs
     id="defs3859">
    <filter
       color-interpolation-filters="sRGB"
       inkscape:collect="always"
       id="filter6018"
       x="-0.13955963"
       width="1.2791193"
       y="-0.14873222"
       height="1.2974644">
      <feGaussianBlur
         inkscape:collect="always"
         stdDeviation="3.5653125"
         id="feGaussianBlur6020" />
    </filter>
    <filter
       color-interpolation-filters="sRGB"
       inkscape:collect="always"
       id="filter6052"
       x="-0.097761676"
       width="1.1955234"
       y="-0.10662247"
       height="1.2132449">
      <feGaussianBlur
         inkscape:collect="always"
         stdDeviation="1.8533984"
         id="feGaussianBlur6054" />
    </filter>
  </defs>
  <sodipodi:namedview
     id="base"
     pagecolor="#ffffff"
     bordercolor="#666666"
     borderopacity="1.0"
     inkscape:pageopacity="0.0"
     inkscape:pageshadow="2"
     inkscape:zoom="5.5"
     inkscape:cx="32"
     inkscape:cy="32"
     inkscape:current-layer="layer1"
     showgrid="true"
     inkscape:document-units="px"
     inkscape:grid-bbox="true"
     inkscape:window-width="1600"
     inkscape:window-height="838"
     inkscape:window-x="-8"
     inkscape:window-y="-8"
     inkscape:window-maximized="1" />
  <metadata
     id="metadata3862">
    <rdf:RDF>
      <cc:Work
         rdf:about="">
        <dc:format>image/svg+xml</dc:format>
        <dc:type
           rdf:resource="http://purl.org/dc/dcmitype/StillImage" />
        <dc:title></dc:title>
      </cc:Work>
    </rdf:RDF>
  </metadata>
  <g
     id="layer1"
     inkscape:label="Layer 1"
     inkscape:groupmode="layer">
    <g
       style="display:inline"
       id="g3749"
       transform="matrix(0.81718868,0,0,0.85487691,-715.12192,807.56949)">
      <rect
         ry="5.103683"
         transform="translate(0,-947.63782)"
         y="11.320755"
         x="883.01886"
         height="57.547169"
         width="61.320755"
         id="rect5838"
         style="fill:#b3b3b3;fill-opacity:1;stroke:#000000;stroke-linejoin:round;stroke-opacity:0" />
      <path
         transform="translate(0.93219336,0.00634313)"
         d="m 887.65625,-935.84375 c -2.82744,0 -5.09375,2.26631 -5.09375,5.09375 l 0,47.34375 c 0,2.82744 2.26631,5.09375 5.09375,5.09375 l 51.09375,0 c 2.82744,0 5.125,-2.26631 5.125,-5.09375 l 0,-47.34375 c 0,-2.82744 -2.29756,-5.09375 -5.125,-5.09375 l -51.09375,0 z"
         id="path5858-8"
         style="fill:#000000;fill-opacity:1;stroke:#000000;stroke-linejoin:round;stroke-opacity:0;display:inline;filter:url(#filter6018)"
         inkscape:original="M 887.65625 -935.84375 C 884.82881 -935.84375 882.5625 -933.57744 882.5625 -930.75 L 882.5625 -883.40625 C 882.5625 -880.57881 884.82881 -878.3125 887.65625 -878.3125 L 938.75 -878.3125 C 941.57744 -878.3125 943.875 -880.57881 943.875 -883.40625 L 943.875 -930.75 C 943.875 -933.57744 941.57744 -935.84375 938.75 -935.84375 L 887.65625 -935.84375 z "
         inkscape:radius="0"
         sodipodi:type="inkscape:offset" />
      <path
         transform="translate(0.47169811,-0.47169811)"
         d="m 887.65625,-935.84375 c -2.82744,0 -5.09375,2.26631 -5.09375,5.09375 l 0,47.34375 c 0,2.82744 2.26631,5.09375 5.09375,5.09375 l 51.09375,0 c 2.82744,0 5.125,-2.26631 5.125,-5.09375 l 0,-47.34375 c 0,-2.82744 -2.29756,-5.09375 -5.125,-5.09375 l -51.09375,0 z"
         id="path5858"
         style="fill:#cccccc;fill-opacity:1;stroke:#000000;stroke-linejoin:round;stroke-opacity:0;display:inline"
         inkscape:original="M 887.65625 -935.84375 C 884.82881 -935.84375 882.5625 -933.57744 882.5625 -930.75 L 882.5625 -883.40625 C 882.5625 -880.57881 884.82881 -878.3125 887.65625 -878.3125 L 938.75 -878.3125 C 941.57744 -878.3125 943.875 -880.57881 943.875 -883.40625 L 943.875 -930.75 C 943.875 -933.57744 941.57744 -935.84375 938.75 -935.84375 L 887.65625 -935.84375 z "
         inkscape:radius="0"
         sodipodi:type="inkscape:offset" />
      <path
         transform="translate(0.4604953,0.00634273)"
         d="m 890.46875,-927.9375 0,41.71875 45.5,0 0,-41.71875 -45.5,0 z"
         id="path6022"
         style="fill:#ececec;fill-opacity:1;stroke:#000000;stroke-linejoin:round;stroke-opacity:0;display:inline;filter:url(#filter6052)"
         inkscape:original="M 888.6875 -929.71875 L 888.6875 -884.4375 L 937.75 -884.4375 L 937.75 -929.71875 L 888.6875 -929.71875 z "
         inkscape:radius="-1.7751479"
         sodipodi:type="inkscape:offset" />
      <path
         sodipodi:open="true"
         sodipodi:end="9.841477"
         sodipodi:start="3.6241059"
         transform="translate(0,-947.63782)"
         d="m 898.89918,34.324144 c 4.16998,-8.105608 14.00396,-11.234605 21.96483,-6.988811 7.96086,4.245794 11.03398,14.258583 6.86401,22.36419 -4.16998,8.105607 -14.00397,11.234604 -21.96483,6.98881 -7.59286,-4.049524 -10.79861,-13.401823 -7.32937,-21.382321"
         sodipodi:ry="16.568048"
         sodipodi:rx="16.272188"
         sodipodi:cy="42.011833"
         sodipodi:cx="913.3136"
         id="path6058"
         style="fill:#999999;fill-opacity:1;stroke:#000000;stroke-linejoin:round;stroke-opacity:0"
         sodipodi:type="arc" />
      <path
         transform="translate(-0.29600026,-947.63782)"
         d="m 914.28125,29.90625 c -4.56394,-0.383625 -9.12309,1.938752 -11.4375,6.4375 l -0.34375,0.75 c -2.56877,5.909097 -0.20504,12.728147 5.34375,15.6875 5.82183,3.104977 12.85204,0.87251 15.9375,-5.125 3.08927,-6.004926 0.82768,-13.298155 -5,-16.40625 -1.45314,-0.775007 -2.98602,-1.216491 -4.5,-1.34375 z"
         id="path6081"
         style="fill:#ececec;fill-opacity:1;stroke:#000000;stroke-linejoin:round;stroke-opacity:0;display:inline"
         inkscape:original="M 914.65625 25.5 C 908.33648 24.968787 902.03373 28.233295 898.90625 34.3125 L 898.4375 35.3125 C 894.96826 43.292998 898.15714 52.637976 905.75 56.6875 C 913.71086 60.933294 923.54877 57.793107 927.71875 49.6875 C 931.88873 41.581893 928.83586 31.589544 920.875 27.34375 C 918.88478 26.282302 916.76284 25.677071 914.65625 25.5 z "
         inkscape:radius="-4.4333391"
         sodipodi:type="inkscape:offset" />
      <path
         transform="matrix(0.61605212,0,0,0.65002815,355.10222,-934.42032)"
         d="m 914.28125,29.90625 c -4.56394,-0.383625 -9.12309,1.938752 -11.4375,6.4375 l -0.34375,0.75 c -2.56877,5.909097 -0.20504,12.728147 5.34375,15.6875 5.82183,3.104977 12.85204,0.87251 15.9375,-5.125 3.08927,-6.004926 0.82768,-13.298155 -5,-16.40625 -1.45314,-0.775007 -2.98602,-1.216491 -4.5,-1.34375 z"
         id="path6081-1"
         style="fill:#ececec;fill-opacity:1;stroke:#000000;stroke-linejoin:round;stroke-opacity:0;display:inline"
         inkscape:original="M 914.65625 25.5 C 908.33648 24.968787 902.03373 28.233295 898.90625 34.3125 L 898.4375 35.3125 C 894.96826 43.292998 898.15714 52.637976 905.75 56.6875 C 913.71086 60.933294 923.54877 57.793107 927.71875 49.6875 C 931.88873 41.581893 928.83586 31.589544 920.875 27.34375 C 918.88478 26.282302 916.76284 25.677071 914.65625 25.5 z "
         inkscape:radius="-4.4333391"
         sodipodi:type="inkscape:offset" />
      <path
         inkscape:transform-center-y="-0.92698839"
         inkscape:transform-center-x="0.01347382"
         transform="translate(9.5238095,-940.23041)"
         d="m 910.05289,30.158729 -11.56966,0.05126 -3.62397,-10.987563 9.32993,-6.841945 9.39018,6.759009 z"
         inkscape:randomized="0"
         inkscape:rounded="0"
         inkscape:flatsided="true"
         sodipodi:arg2="1.566366"
         sodipodi:arg1="0.93804749"
         sodipodi:r2="7.9622149"
         sodipodi:r1="9.8418388"
         sodipodi:cy="22.222221"
         sodipodi:cx="904.23279"
         sodipodi:sides="5"
         id="path6113"
         style="fill:#ececec;fill-opacity:1;stroke:#000000;stroke-linejoin:round;stroke-opacity:0"
         sodipodi:type="star" />
      <rect
         ry="2.0710058"
         y="-926.92773"
         x="911.24261"
         height="24.852072"
         width="4.1420116"
         id="rect6109"
         style="fill:#808080;fill-opacity:1;stroke:#000000;stroke-linejoin:round;stroke-opacity:0" />
    </g>
  </g>
</svg>
